inDegrees=no
num_controls=7
num_derivatives=13
num_iterations=125
num_multipliers=7
num_parameters=0
num_slacks=7
num_states=26
objective=5.205666
objective_accelerations=0.488557
objective_balance=0.050485
objective_effort=0.238297
objective_height=4.363045
objective_ligament=0.065281
solver_duration=1406.846507
status=Solve_Succeeded
success=true
DataType=double
version=3
OpenSimVersion=4.4-2022-07-23-0e9fedc
endheader
time	/jointset/ground_pelvis/pelvis_tilt/value	/jointset/ground_pelvis/pelvis_tx/value	/jointset/ground_pelvis/pelvis_ty/value	/jointset/hip_l/hip_flexion_l/value	/jointset/hip_l/hip_adduction_l/value	/jointset/hip_l/hip_rotation_l/value	/jointset/back/lumbar_extension/value	/jointset/patellofemoral_l/patellar_flexion_l/value	/jointset/knee_l/knee_flexion_l/value	/jointset/knee_l/knee_adduction_l/value	/jointset/knee_l/knee_rotation_l/value	/jointset/ankle_l/ankle_angle_l/value	/jointset/subtalar_l/subtalar_angle_l/value	/jointset/ground_pelvis/pelvis_tilt/speed	/jointset/ground_pelvis/pelvis_tx/speed	/jointset/ground_pelvis/pelvis_ty/speed	/jointset/hip_l/hip_flexion_l/speed	/jointset/hip_l/hip_adduction_l/speed	/jointset/hip_l/hip_rotation_l/speed	/jointset/back/lumbar_extension/speed	/jointset/patellofemoral_l/patellar_flexion_l/speed	/jointset/knee_l/knee_flexion_l/speed	/jointset/knee_l/knee_adduction_l/speed	/jointset/knee_l/knee_rotation_l/speed	/jointset/ankle_l/ankle_angle_l/speed	/jointset/subtalar_l/subtalar_angle_l/speed	/forceset/tau_hip_flexion_l	/forceset/tau_hip_adduction_l	/forceset/tau_hip_rotation_l	/forceset/tau_knee_flexion_l	/forceset/tau_ankle_angle_l	/forceset/tau_subtalar_angle_l	/forceset/tau_lumbar_extension	lambda_cid13_p0	lambda_cid13_p1	lambda_cid13_p2	lambda_cid13_p3	lambda_cid13_p4	lambda_cid13_p5	lambda_cid14_p0	/jointset/ground_pelvis/pelvis_tilt/accel	/jointset/ground_pelvis/pelvis_tx/accel	/jointset/ground_pelvis/pelvis_ty/accel	/jointset/hip_l/hip_flexion_l/accel	/jointset/hip_l/hip_adduction_l/accel	/jointset/hip_l/hip_rotation_l/accel	/jointset/back/lumbar_extension/accel	/jointset/patellofemoral_l/patellar_flexion_l/accel	/jointset/knee_l/knee_flexion_l/accel	/jointset/knee_l/knee_adduction_l/accel	/jointset/knee_l/knee_rotation_l/accel	/jointset/ankle_l/ankle_angle_l/accel	/jointset/subtalar_l/subtalar_angle_l/accel	gamma_cid13_p0	gamma_cid13_p1	gamma_cid13_p2	gamma_cid13_p3	gamma_cid13_p4	gamma_cid13_p5	gamma_cid14_p0
0.5	-0.3394239782219503	-0.03108613440362581	0.7911580678482099	0.9762386553685641	-0.4315645824905433	-0.2903967345092698	-0.2521446164818907	0.6443380284638304	0.6443380284637938	-0.1645255911867634	-0.1707601025801347	0.04337849068876703	-0.05978818285541734	-0.7858936099763134	-0.2233200743211536	-0.3927573361472398	2.141206827664977	-0.2197362678553824	0.6698187062980597	-0.1299583124610854	1.545090860874508	1.545090860874506	0.01665661888869978	-0.02893402967747958	0.3049184039680063	-0.09581289852462649	-0.1713554456330907	0.02609938642523939	-0.007490304695133294	-0.1785829016268678	0.05642339896609475	0.04626770541984341	0.1685262125608878	-15.56988518104049	-21.2256880601379	7.454570777101963	-3.390352301144679	-529.6739670961078	-66.35893583487557	-33.01590121513703	0.5761335801046708	0.4591964833921403	-0.2790485295716483	-1.181330206299474	0.6165975453617436	-0.1107879788088031	1.02577029889401	-1.036928757355756	-1.036928757355787	-0.03932519235206968	0.130111675893288	-0.2143459039386612	0.5267334133594234	-6.000674415421621e-08	-9.291596544411429e-07	-4.570648140703005e-08	-2.286539459646375e-07	-1.157762762765921e-07	-3.673849621910458e-08	-1.42084397947719e-07
0.51	-0.3472525112774429	-0.03329611070408229	0.7872173572415335	0.9975878282619253	-0.4337315323766524	-0.2837064526826409	-0.2533936530033127	0.6597350731543414	0.6597350731543583	-0.1643616013096904	-0.1710446273367162	0.04641628463259097	-0.06072071677261331	-0.7797047230652865	-0.2186536582125074	-0.3953036366174589	2.128330608810642	-0.2136368240089696	0.6681443851160321	-0.1198727995919493	1.534109513311639	1.53410951331162	0.01614470250002517	-0.02796780828924446	0.3025911272399116	-0.0906951957553197	-0.1767635588563316	0.02740964159161957	-0.007344915382903856	-0.1799333249684533	0.05558443107535514	0.04709429028165876	0.1725826630000674	-15.97899453086444	-21.46622334118938	7.43944068657088	-3.345580041125055	-532.3278910502931	-66.06587166719999	-32.34625380894209	0.6565222338466202	0.4735487316163616	-0.2302716153202369	-1.385324825955989	0.6092830820836911	-0.2098522077850271	0.9963706153390159	-1.159993976742113	-1.159993976744794	-0.05678524579595218	0.08037942134140963	-0.2493343655843387	0.5042408390224334	-6.787778069460736e-08	-8.815796341034475e-07	-2.079028921217335e-08	-2.149938801531493e-07	-1.15823047090578e-07	-2.990055942428063e-08	-1.411936169084691e-07
0.52	-0.3550159042663574	-0.0354587859320494	0.7832536134682411	1.018799327546542	-0.4358369547687173	-0.2770357336718109	-0.2545425486291678	0.6750160531250501	0.6750160531251019	-0.1642026626733455	-0.1713193894691215	0.04942932264747176	-0.06160208323605376	-0.772865596664515	-0.2138598598232783	-0.3973639694705354	2.113672105918062	-0.2074307690504766	0.6659061431386016	-0.1099301333461917	1.52187791690919	1.521877916909154	0.01564637076454484	-0.02698150485890831	0.2999672181782425	-0.08557940777375964	-0.1821716720797888	0.02871989675804453	-0.007199526071177124	-0.1812837483099554	0.0547454631846722	0.04792087514355908	0.1766391134389894	-16.39515346713117	-21.70655166062509	7.425451249909037	-3.297815848143218	-535.0971197251665	-65.80424145884278	-31.66869180723037	0.7061814780532883	0.4846729395087435	-0.1818550061431288	-1.537787013948371	0.6379197677777481	-0.2235721378893866	0.997200974218084	-1.286978525271618	-1.286978525271583	-0.03660826171322162	0.1341280843134824	-0.273672370653492	0.5263504558100928	-7.597903487315268e-08	-8.284811797757754e-07	8.725338039375771e-09	-1.99053450106643e-07	-1.1652474437724e-07	-2.295778490960666e-08	-1.399009277043321e-07
0.53	-0.3627077814287793	-0.03757293353861419	0.77927171732912	1.039855514772816	-0.4378798314033036	-0.2703900113931283	-0.255592777074537	0.6901685288085067	0.6901685288085946	-0.1640486765282639	-0.1715840128132577	0.05241466316319054	-0.06243234005846348	-0.7654071847910966	-0.2089521264149474	-0.3989317448212306	2.097277313367887	-0.2011332565816723	0.6631433779006819	-0.1001500598309156	1.508417784103619	1.508417784103569	0.01515532707930013	-0.02594218923760198	0.2970554139192274	-0.08047700067202571	-0.1874298169276142	0.02982336081757358	-0.00709044813797141	-0.1827105908970284	0.05403419576758173	0.048686761208295	0.1805499912222306	-16.7688192798257	-21.92918055466501	7.410035509799166	-3.250797857635188	-537.8066318941769	-65.52966107660166	-30.9858299319293	0.7810776219198201	0.4964156665491236	-0.1317351483633881	-1.733520764638515	0.6274719213639096	-0.3169734325050755	0.9632349242725075	-1.405418165861186	-1.40541816586338	-0.05482296055850416	0.08902052570078459	-0.3067809125440115	0.5015542950440048	-8.649301454152854e-08	-7.680509559243086e-07	5.072785530090665e-08	-1.781091238374924e-07	-1.210139728289151e-07	-1.561541797634309e-08	-1.390869370625889e-07
0.54	-0.3703219931564622	-0.03963748538608507	0.7752766441667268	1.060739114995794	-0.439859371926192	-0.2637747857099784	-0.2565462399079325	0.7051804256624027	0.7051804256624881	-0.1638994949279174	-0.1718382055561386	0.05536951634452267	-0.06321169911831684	-0.7573325097203734	-0.2039407080044968	-0.3999993741250351	2.079154705254235	-0.1947635467156143	0.659806824032301	-0.09057701095203399	1.493762150991597	1.493762150991532	0.01468546184894636	-0.0248953846298445	0.2938697512994758	-0.07539985526272611	-0.1926879617753393	0.03092682487717981	-0.006981370205448586	-0.1841374334839855	0.05332292835053429	0.04945264727314751	0.184460869005516	-17.14842843413603	-22.1519986141473	7.39605480707782	-3.207177585222631	-540.6179166644562	-65.28497521085643	-30.30120979891643	0.8294341175140511	0.5054099399326537	-0.08182579676500269	-1.883350126643861	0.6523592472284423	-0.338329863981676	0.9557960469390023	-1.526078586562049	-1.526078586562027	-0.03237257073500929	0.1356258816036905	-0.3284440428007546	0.5212981173232362	-9.967639262418504e-08	-6.995089870677924e-07	1.065456551266728e-07	-1.516285719603098e-07	-1.29693661292945e-07	-7.83094879272508e-09	-1.388025703622174e-07
0.55	-0.3778524959821797	-0.04165148566592233	0.7712734075347045	1.081433050380723	-0.4417748988369554	-0.2571954441870771	-0.2574051226137783	0.720039794034077	0.7200397940341361	-0.1637550590309501	-0.1720815933032535	0.05829109769723962	-0.06394048759302426	-0.7486675808664287	-0.1988486592470347	-0.4005636003466165	2.059355494086911	-0.1883360623743006	0.655968156032908	-0.08125314888454208	1.477922517657988	1.477922517657971	0.01420549468856039	-0.02378176413188026	0.2904012382617667	-0.07036859128234903	-0.1977868500893715	0.03192144071762704	-0.006893196637605278	-0.1855604182464248	0.0525646025173333	0.05011912310417668	0.1882005749620136	-17.53965966745781	-22.32912153415063	7.374233376275583	-3.085195899688304	-543.315513779765	-64.98375260720512	-29.62314460244703	0.9000958262694483	0.5126782140272075	-0.0310951305872707	-2.069737107585452	0.6388859630229061	-0.4207379694519595	0.9126384862904364	-1.641228830521408	-1.641228830514188	-0.05535373595753086	0.09934662557879609	-0.3628703895180963	0.4925180557362487	-1.03565879163831e-07	-6.406705831238322e-07	1.302009269463058e-07	-1.346253617473288e-07	-1.268740108074547e-07	-6.131238076650903e-10	-1.347293837447434e-07
0.5600000000000001	-0.3852933348079549	-0.04361425028411037	0.7672670538213205	1.101920687554808	-0.4436259623172003	-0.2506573098844708	-0.2581723752590285	0.7347351014477034	0.7347351014476927	-0.1636153317952341	-0.1723138215469015	0.06117663082853438	-0.06461926792445846	-0.7393997097351458	-0.1936935756746504	-0.4006227903974172	2.037895063087209	-0.1818708606154144	0.651565379972175	-0.07225099883160241	1.460949959373941	1.460949959373973	0.01374372963751851	-0.0226634839664882	0.2866601070135762	-0.06539822660831214	-0.2028857384035775	0.03291605655813843	-0.006805023070717094	-0.186983403008727	0.05180627668419907	0.05078559893532349	0.1919402809182834	-17.93418606096643	-22.50688228844899	7.353901396364274	-2.980065130457715	-546.081284636271	-64.70809937913252	-28.9526039651954	0.9500225729814789	0.5180169029170582	0.01918143739112976	-2.215594093119229	0.6599027307429167	-0.4511514762497306	0.8914536440283251	-1.75266357664951	-1.752663576649472	-0.02873214886614366	0.1365578150892203	-0.3829676848970442	0.5091182560551912	-9.630269585186476e-08	-5.934764570749389e-07	1.152611651585801e-07	-1.289949615313893e-07	-1.102551535825405e-07	5.924728139125297e-09	-1.261096132267466e-07
0.5700000000000001	-0.3926386477192488	-0.04552519396943808	0.7632626255764342	1.122185706655318	-0.4454121850108039	-0.2441658790004787	-0.258851203640052	0.7492551543261468	0.7492551543261632	-0.1634800370419282	-0.1725347082308954	0.06402345523146066	-0.06524861531563064	-0.729569422602622	-0.1884884074721397	-0.4001777185515297	2.014842208181114	-0.1753735185971419	0.6466311282745917	-0.06357815295024205	1.442878333165031	1.44287833316508	0.0133148271428148	-0.02151143498116723	0.282661604239897	-0.06048699714473498	-0.2077857377459769	0.03372031650184204	-0.006743808447405263	-0.1885110590157864	0.05116426280170482	0.05137500892898226	0.1954955312942872	-18.2887143457172	-22.65907665749289	7.330521215802656	-2.855367003622556	-548.7570781489761	-64.41149391869793	-28.2892662082376	1.01355015559729	0.5227547045581304	0.06992089145753914	-2.390113406006264	0.6447399179132138	-0.5281018332660011	0.8456787233811516	-1.861730368900953	-1.861730368898665	-0.05012531993410897	0.1049370978097154	-0.4147876615110797	0.4798420068306162	-8.872814709669699e-08	-5.475909795059568e-07	9.927898579397814e-08	-1.233178616996383e-07	-9.425986978034506e-08	1.14994367163977e-08	-1.172880638369575e-07
0.58	-0.3998828540847601	-0.04738388838761286	0.7592651982166615	1.142212200763427	-0.4471334162881013	-0.2377264985968115	-0.2594452078296289	0.7635890272973465	0.7635890272973712	-0.163349062517731	-0.1727439926934278	0.06682899538907427	-0.0658293070691017	-0.7191784005817635	-0.1832437222440631	-0.399222613374747	1.990190064608929	-0.1688725773571413	0.6411552839068825	-0.05528616054122758	1.423713977920554	1.423713977920618	0.01287968384167011	-0.02034303969360783	0.2784032579499122	-0.05566709906828626	-0.2126857370885502	0.03452457644558786	-0.006682593824712538	-0.1900387150227542	0.05052224891926326	0.05196441892272318	0.199050781670078	-18.64753921500134	-22.81164971031202	7.308493396822779	-2.742842591697013	-551.5156955675037	-64.14114254005268	-27.63304602299393	1.062169550648232	0.5259203080301673	0.121188103570179	-2.535451826337294	0.6606225750885004	-0.5594700102749925	0.8152829495589335	-1.971209383763038	-1.971209383763067	-0.02998031015427289	0.1398270755368578	-0.4349363881581953	0.4908519786294857	-8.07480991596855e-08	-5.034097883294174e-07	8.193923935251425e-08	-1.175799437635747e-07	-7.907668159843465e-08	1.58198190449955e-08	-1.082037326606485e-07
0.59	-0.4070204807358859	-0.04918999400971808	0.7552798531623365	1.161984471477435	-0.4487896066608453	-0.2313444954214206	-0.2599582235495217	0.7777259546540036	0.7777259546540291	-0.1632223231109202	-0.1729414211152592	0.06959071385704839	-0.06636221084679531	-0.7082569420037418	-0.1779755649147676	-0.3977617328291457	1.964008643625714	-0.1623702262452697	0.6351552946478436	-0.04739426141970558	1.403499694313656	1.403499694313606	0.01246851499357926	-0.01914241304350652	0.2738993930644316	-0.05093368016435706	-0.2173906907431467	0.03520517069980576	-0.006636870816566316	-0.1915601883091565	0.04987977601971303	0.05246229204520195	0.2024174192848234	-18.99971247008459	-22.9253492885428	7.279943955004049	-2.57868356362489	-554.1181383699677	-63.82491988855278	-26.98400526653703	1.12063227935705	0.5275161908103794	0.1712236928350202	-2.697802664733804	0.6443889582238735	-0.6338465612955603	0.7645516956454199	-2.072287137607849	-2.072287137624842	-0.04672087422038138	0.1102501705523654	-0.4642860271101066	0.461651630201547	-7.258877319322101e-08	-4.583230979228346e-07	6.545502074059958e-08	-1.112217570781336e-07	-6.452401016652762e-08	1.927297844920343e-08	-9.883084517465253e-08
